<?xml version="1.0" encoding="UTF-8"?><svg id="Layer_1" xmlns="http://www.w3.org/2000/svg" xmlns:xlink="http://www.w3.org/1999/xlink" viewBox="0 0 500 500"><defs><style>.cls-1,.cls-2{fill:none;}.cls-3{fill:#eaeff9;}.cls-4{fill:#3e66ba;}.cls-5{clip-path:url(#clippath-1);}.cls-6{clip-path:url(#clippath-3);}.cls-7{clip-path:url(#clippath-2);}.cls-8{fill:#fff;}.cls-9{fill:#1a4363;}.cls-10{fill:#539ddb;}.cls-11{fill:#cce2ef;}.cls-12{clip-path:url(#clippath);}.cls-2{stroke:#1a4363;stroke-linecap:round;stroke-linejoin:round;stroke-width:10px;}</style><clipPath id="clippath"><rect class="cls-1" x="168.95" y="152" width="99.05" height="100"/></clipPath><clipPath id="clippath-1"><rect class="cls-1" x="228" y="165.51" width="102.7" height="99.52"/></clipPath><clipPath id="clippath-2"><rect class="cls-1" x="228" y="165.51" width="82.67" height="99.52"/></clipPath><clipPath id="clippath-3"><rect class="cls-1" x="222.67" y="143.03" width="50.67" height="110.31"/></clipPath></defs><path class="cls-8" d="M110.88,342.37h-4.13v-1.06h9.5v1.06h-4.13v10.67h-1.25v-10.67Z"/><path class="cls-8" d="M129.16,353.03l-2.69-3.77c-.31.03-.62.04-.94.04h-3.17v3.73h-1.23v-11.73h4.4c1.5,0,2.67.36,3.52,1.08.84.71,1.27,1.69,1.27,2.94,0,.92-.24,1.7-.71,2.33-.46.63-1.12,1.08-1.98,1.35l2.88,4.02h-1.35ZM125.49,348.26c1.17,0,2.05-.26,2.67-.77.61-.51.92-1.23.92-2.17s-.31-1.69-.92-2.19c-.61-.51-1.5-.77-2.67-.77h-3.13v5.9h3.13Z"/><path class="cls-8" d="M143.52,349.89h-6.54l-1.4,3.15h-1.29l5.35-11.73h1.23l5.38,11.73h-1.31l-1.42-3.15ZM143.07,348.89l-2.81-6.31-2.81,6.31h5.63Z"/><path class="cls-8" d="M160.91,341.3v11.73h-1.02l-7.56-9.52v9.52h-1.23v-11.73h1.02l7.56,9.52v-9.52h1.23Z"/><path class="cls-8" d="M170.87,353.14c-.88,0-1.72-.14-2.52-.42-.79-.28-1.41-.65-1.83-1.1l.48-.96c.43.42.99.76,1.69,1.02.71.27,1.44.4,2.19.4,1.05,0,1.84-.19,2.35-.56.53-.39.79-.9.79-1.52,0-.47-.15-.84-.44-1.13-.28-.28-.63-.48-1.04-.63-.41-.15-.97-.32-1.71-.5-.89-.22-1.6-.44-2.13-.65-.53-.21-.98-.52-1.35-.94-.36-.43-.54-1.01-.54-1.75,0-.58.15-1.11.46-1.6.32-.48.8-.88,1.44-1.17.65-.29,1.46-.44,2.42-.44.68,0,1.34.09,1.98.27.64.18,1.19.44,1.67.77l-.42.98c-.5-.32-1.03-.56-1.58-.73-.56-.17-1.1-.25-1.65-.25-1.03,0-1.81.2-2.33.6-.52.41-.77.92-.77,1.54,0,.46.14.83.42,1.13.29.28.65.49,1.08.65.43.16,1.01.32,1.75.5.86.21,1.55.42,2.08.63.53.21.97.53,1.33.96.38.42.56.98.56,1.69,0,.6-.16,1.14-.48,1.63-.32.49-.81.88-1.48,1.17-.66.28-1.46.42-2.42.42Z"/><path class="cls-8" d="M180.86,341.3h1.23v10.65h6.58v1.08h-7.81v-11.73Z"/><path class="cls-8" d="M201,349.89h-6.54l-1.4,3.15h-1.29l5.35-11.73h1.23l5.38,11.73h-1.31l-1.42-3.15ZM200.54,348.89l-2.81-6.31-2.81,6.31h5.63Z"/><path class="cls-8" d="M210.84,342.37h-4.13v-1.06h9.5v1.06h-4.13v10.67h-1.25v-10.67Z"/><path class="cls-8" d="M221.11,341.3h1.23v11.73h-1.23v-11.73Z"/><path class="cls-8" d="M234.21,353.14c-1.17,0-2.22-.26-3.17-.77-.95-.53-1.68-1.24-2.21-2.15-.53-.9-.79-1.92-.79-3.06s.26-2.14.79-3.04c.53-.9,1.26-1.61,2.21-2.13.94-.53,2-.79,3.17-.79s2.21.26,3.15.77c.93.52,1.67,1.23,2.21,2.15.54.91.81,1.92.81,3.04s-.27,2.17-.81,3.08c-.54.91-1.28,1.61-2.21,2.13-.93.52-1.98.77-3.15.77ZM234.21,352.03c.93,0,1.77-.21,2.52-.63.75-.43,1.33-1.01,1.75-1.75.43-.75.65-1.58.65-2.5s-.22-1.74-.65-2.48c-.42-.75-1-1.33-1.75-1.75s-1.59-.63-2.52-.63-1.77.21-2.52.63-1.34,1-1.77,1.75c-.43.74-.65,1.56-.65,2.48s.21,1.75.65,2.5c.43.74,1.02,1.32,1.77,1.75.75.42,1.59.63,2.52.63Z"/><path class="cls-8" d="M255.87,341.3v11.73h-1.02l-7.56-9.52v9.52h-1.23v-11.73h1.02l7.56,9.52v-9.52h1.23Z"/><path class="cls-8" d="M273.13,353.14c-.88,0-1.72-.14-2.52-.42-.79-.28-1.41-.65-1.83-1.1l.48-.96c.43.42.99.76,1.69,1.02.71.27,1.44.4,2.19.4,1.05,0,1.84-.19,2.35-.56.53-.39.79-.9.79-1.52,0-.47-.15-.84-.44-1.13-.28-.28-.63-.48-1.04-.63-.41-.15-.97-.32-1.71-.5-.89-.22-1.6-.44-2.13-.65-.53-.21-.98-.52-1.35-.94-.36-.43-.54-1.01-.54-1.75,0-.58.15-1.11.46-1.6.32-.48.8-.88,1.44-1.17.65-.29,1.46-.44,2.42-.44.68,0,1.34.09,1.98.27.64.18,1.19.44,1.67.77l-.42.98c-.5-.32-1.03-.56-1.58-.73-.56-.17-1.1-.25-1.65-.25-1.03,0-1.81.2-2.33.6-.52.41-.77.92-.77,1.54,0,.46.14.83.42,1.13.29.28.65.49,1.08.65.43.16,1.01.32,1.75.5.86.21,1.55.42,2.08.63.53.21.97.53,1.33.96.38.42.56.98.56,1.69,0,.6-.16,1.14-.48,1.63-.32.49-.81.88-1.48,1.17-.66.28-1.46.42-2.42.42Z"/><path class="cls-8" d="M283.13,341.3h1.23v11.73h-1.23v-11.73Z"/><path class="cls-8" d="M303.29,341.3v11.73h-1.19v-9.4l-4.63,7.9h-.58l-4.6-7.83v9.33h-1.19v-11.73h1.02l5.1,8.69,5.04-8.69h1.02Z"/><path class="cls-8" d="M314.42,341.3c1.5,0,2.67.36,3.52,1.08.84.71,1.27,1.69,1.27,2.94s-.43,2.23-1.27,2.94c-.85.71-2.02,1.06-3.52,1.06h-3.17v3.71h-1.23v-11.73h4.4ZM314.38,348.24c1.17,0,2.05-.25,2.67-.75.61-.51.92-1.23.92-2.17s-.31-1.69-.92-2.19c-.61-.51-1.5-.77-2.67-.77h-3.13v5.88h3.13Z"/><path class="cls-8" d="M324.97,341.3h1.23v10.65h6.58v1.08h-7.81v-11.73Z"/><path class="cls-8" d="M337.75,341.3h1.23v11.73h-1.23v-11.73Z"/><path class="cls-8" d="M346.96,342.37v4.6h6.08v1.08h-6.08v4.98h-1.23v-11.73h8.04v1.06h-6.81Z"/><path class="cls-8" d="M359.25,341.3h1.23v11.73h-1.23v-11.73Z"/><path class="cls-8" d="M375.52,351.95v1.08h-8.29v-11.73h8.04v1.06h-6.81v4.17h6.08v1.06h-6.08v4.35h7.06Z"/><path class="cls-8" d="M381.36,341.3h4.77c1.25,0,2.34.25,3.29.75.94.49,1.68,1.18,2.21,2.06.53.89.79,1.91.79,3.04s-.27,2.16-.79,3.04c-.53.89-1.27,1.58-2.21,2.08-.95.5-2.04.75-3.29.75h-4.77v-11.73ZM386.07,351.95c1.03,0,1.92-.2,2.69-.6.78-.4,1.38-.96,1.79-1.69.43-.72.65-1.55.65-2.5s-.22-1.76-.65-2.48c-.42-.72-1.02-1.28-1.79-1.69-.77-.42-1.66-.63-2.69-.63h-3.48v9.58h3.48Z"/><path class="cls-8" d="M146.88,321.13c-1.03,0-1.88-.24-2.54-.71-.67-.48-1.21-1.2-1.63-2.15l-14.94-33.52c-.42-.94-.54-1.78-.35-2.5.19-.73.59-1.31,1.21-1.73.61-.42,1.34-.63,2.19-.63,1.09,0,1.92.24,2.48.71.55.47,1.02,1.19,1.4,2.15l13.56,31.4h-2.46l13.5-31.46c.42-.92.91-1.61,1.48-2.08.57-.47,1.36-.71,2.4-.71.84,0,1.54.21,2.08.63.55.42.91.99,1.06,1.73.15.72.02,1.56-.4,2.5l-14.92,33.52c-.43.95-.96,1.66-1.58,2.15-.63.47-1.47.71-2.54.71Z"/><path class="cls-8" d="M182.03,320.67c-1.27,0-2.23-.33-2.9-1s-1-1.63-1-2.9v-32.54c0-1.25.33-2.21,1-2.88s1.63-1,2.9-1h20.42c.96,0,1.69.25,2.21.75.51.49.77,1.19.77,2.1s-.26,1.7-.77,2.21-1.25.77-2.21.77h-17.27v11.08h16.02c.98,0,1.72.25,2.21.75.5.5.75,1.22.75,2.17s-.25,1.69-.75,2.19c-.49.49-1.22.73-2.21.73h-16.02v11.73h17.27c.96,0,1.69.25,2.21.75.51.49.77,1.21.77,2.17s-.26,1.69-.77,2.19c-.52.49-1.25.73-2.21.73h-20.42Z"/><path class="cls-8" d="M222.46,321.13c-1.18,0-2.09-.33-2.73-1-.63-.67-.94-1.59-.94-2.77v-33.29c0-1.22.32-2.15.98-2.77.65-.63,1.57-.94,2.75-.94h13.77c4.43,0,7.84,1.06,10.25,3.17,2.4,2.11,3.6,5.08,3.6,8.9,0,2.47-.55,4.6-1.65,6.4-1.08,1.79-2.66,3.17-4.71,4.13-2.06.96-4.56,1.44-7.5,1.44l.52-.85h1.9c1.55,0,2.92.39,4.08,1.15,1.17.75,2.19,1.95,3.06,3.58l4.29,7.96c.46.81.67,1.59.63,2.35-.04.75-.33,1.37-.88,1.85-.53.47-1.31.71-2.33.71s-1.87-.22-2.52-.65c-.64-.44-1.21-1.13-1.71-2.04l-5.77-10.65c-.7-1.29-1.51-2.15-2.44-2.58-.93-.44-2.13-.67-3.58-.67h-5.42v12.81c0,1.18-.31,2.1-.92,2.77-.61.67-1.53,1-2.75,1ZM226.12,299.11h8.92c2.63,0,4.61-.54,5.96-1.63,1.36-1.08,2.04-2.71,2.04-4.9s-.68-3.75-2.04-4.83c-1.35-1.08-3.33-1.63-5.96-1.63h-8.92v12.98Z"/><path class="cls-8" d="M268.42,320.67c-1.27,0-2.23-.33-2.9-1s-1-1.63-1-2.9v-32.54c0-1.25.33-2.21,1-2.88s1.63-1,2.9-1h13.73c2.82,0,5.21.43,7.19,1.27,1.98.83,3.5,2.04,4.54,3.6,1.05,1.56,1.58,3.42,1.58,5.58,0,2.45-.71,4.51-2.13,6.19-1.41,1.67-3.32,2.79-5.75,3.38v-.88c2.82.43,5.01,1.51,6.56,3.23,1.57,1.71,2.35,3.93,2.35,6.67,0,3.58-1.22,6.36-3.65,8.33-2.42,1.96-5.78,2.94-10.08,2.94h-14.35ZM271.57,315.13h10.29c2.59,0,4.5-.51,5.71-1.52,1.22-1.01,1.83-2.53,1.83-4.54s-.61-3.57-1.83-4.56c-1.21-1-3.11-1.5-5.71-1.5h-10.29v12.13ZM271.57,297.46h9.31c2.53,0,4.41-.48,5.65-1.46,1.23-.97,1.85-2.42,1.85-4.33s-.62-3.34-1.85-4.31c-1.24-.97-3.12-1.46-5.65-1.46h-9.31v11.56Z"/><path class="cls-8" d="M314.05,321.13c-1.18,0-2.09-.33-2.73-1-.63-.67-.94-1.59-.94-2.77v-33.69c0-1.22.31-2.15.94-2.79.64-.65,1.55-.98,2.73-.98s2.08.33,2.71.98c.64.64.96,1.57.96,2.79v33.69c0,1.18-.31,2.1-.92,2.77-.61.67-1.53,1-2.75,1Z"/><path class="cls-8" d="M351.1,321.23c-3.89,0-7.29-.85-10.21-2.56-2.92-1.72-5.18-4.13-6.79-7.23-1.6-3.11-2.4-6.76-2.4-10.96,0-3.17.46-6.01,1.38-8.54.92-2.54,2.22-4.71,3.92-6.52,1.69-1.82,3.73-3.21,6.1-4.19,2.39-.97,5.05-1.46,8-1.46,3.93,0,7.34.85,10.23,2.56,2.9,1.7,5.15,4.08,6.75,7.17,1.59,3.08,2.4,6.72,2.4,10.92,0,3.17-.46,6.03-1.38,8.58-.91,2.56-2.21,4.75-3.92,6.58-1.7,1.82-3.74,3.22-6.13,4.19-2.38.97-5.03,1.46-7.96,1.46ZM351.1,314.96c2.47,0,4.57-.57,6.31-1.71,1.73-1.15,3.07-2.81,4-4.98.94-2.18,1.42-4.78,1.42-7.79,0-4.57-1.02-8.11-3.06-10.63-2.04-2.53-4.93-3.79-8.67-3.79-2.45,0-4.54.56-6.29,1.69s-3.1,2.77-4.04,4.92c-.93,2.16-1.4,4.76-1.4,7.81,0,4.54,1.03,8.09,3.08,10.65,2.07,2.56,4.95,3.83,8.65,3.83Z"/><g class="cls-12"><path class="cls-10" d="M267.5,152.28h-84.26c-7.71,0-14.04,6.35-14.04,14.11v49.35c0,7.76,6.32,14.09,14.04,14.09h7.03v21.17l28.09-21.17h14.05"/><path class="cls-10" d="M267.5,152.28h-84.26c-7.71,0-14.04,6.35-14.04,14.11v49.35c0,7.76,6.32,14.09,14.04,14.09h7.03v21.17l28.09-21.17h14.05"/></g><path class="cls-4" d="M233.1,229.84h1.41l27.39-63.45,5.6-14.11h-16.14l-27.39,59.94c-.7,2.12-2.81,3.53-4.92,3.53-2.1.7-3.51,1.41-4.92,2.11l-23.87,19.04v14.11l28.09-21.17h14.75"/><g class="cls-5"><path class="cls-3" d="M261.9,166.39h54.76c7.73,0,14.05,6.35,14.05,14.09v49.35c0,7.76-6.32,14.11-14.05,14.11h-7.01v21.15l-28.09-21.15h-49.15c-1.4,0-2.81,0-3.51-.7"/></g><g class="cls-7"><path class="cls-11" d="M276.64,229.84h-17.56c-4.91,0-8.42-4.92-6.31-9.86l23.17-53.58h-14.04l-27.39,63.45-5.62,13.41c1.41,0,2.81.7,3.51.7h49.15l28.09,21.15v-14.09l-24.57-18.34c-2.11-2.12-4.92-2.82-8.43-2.82"/></g><g class="cls-6"><path class="cls-2" d="M271.02,145.24l-45.64,105.77"/></g><path class="cls-9" d="M295.59,226.31c-2.11,0-3.51-1.4-3.51-3.52v-28.2c0-2.11-1.41-3.53-3.5-3.53h-14.05c-2.1,0-3.51,1.41-3.51,3.53v28.2c0,2.12-1.41,3.52-3.52,3.52s-3.49-1.4-3.49-3.52v-28.2c0-5.65,4.9-10.58,10.52-10.58h14.05c5.6,0,10.53,4.94,10.53,10.58v28.2c0,2.12-1.41,3.52-3.52,3.52"/><path class="cls-9" d="M232.4,176.96h-35.11c-2.11,0-3.52-1.41-3.52-3.52s1.41-3.53,3.52-3.53h35.11c2.11,0,3.5,1.41,3.5,3.53s-1.39,3.52-3.5,3.52ZM292.08,212.21h-21.06c-2.11,0-3.52-1.41-3.52-3.53s1.41-3.53,3.52-3.53h21.06c2.1,0,3.51,1.41,3.51,3.53s-1.41,3.53-3.51,3.53"/><path class="cls-9" d="M231.7,219.27c-.7,0-1.4,0-1.4-.7-16.86-8.47-28.09-26.09-28.79-44.42,0-2.12,1.41-3.53,3.51-3.53s3.52,1.41,3.52,3.53c.7,16.21,10.52,31.01,25.28,38.77,1.39.7,2.09,2.82,1.39,4.94-1.39.71-2.8,1.41-3.5,1.41"/><path class="cls-9" d="M214.84,176.96c-2.11,0-3.51-1.41-3.51-3.52v-7.05c0-2.12,1.4-3.53,3.51-3.53s3.52,1.41,3.52,3.53v7.05c0,2.1-1.41,3.52-3.52,3.52ZM204.31,213.63c-1.4,0-2.1-.7-2.81-1.41-1.41-1.41-.7-3.53.7-4.94,11.22-7.74,18.25-19.74,18.95-33.83,0-2.11,1.41-3.53,3.52-3.53s3.51,2.11,3.51,3.53c-.7,16.21-9.14,31.01-22.47,39.48,0,.7-.7.7-1.41.7"/></svg>