<?xml version="1.0" encoding="UTF-8"?><svg id="Layer_1" xmlns="http://www.w3.org/2000/svg" xmlns:xlink="http://www.w3.org/1999/xlink" viewBox="0 0 500 500"><defs><style>.cls-1,.cls-2{fill:none;}.cls-3{fill:#eaeff9;}.cls-4{fill:#3e66ba;}.cls-5{clip-path:url(#clippath-1);}.cls-6{clip-path:url(#clippath-3);}.cls-7{clip-path:url(#clippath-2);}.cls-8{fill:#1a4363;}.cls-9{fill:#539ddb;}.cls-10{fill:#cce2ef;}.cls-11{clip-path:url(#clippath);}.cls-2{stroke:#1a4363;stroke-linecap:round;stroke-linejoin:round;stroke-width:10px;}</style><clipPath id="clippath"><rect class="cls-1" x="125.25" y="158.28" width="149.2" height="153.82"/></clipPath><clipPath id="clippath-1"><rect class="cls-1" x="214.19" y="179.06" width="154.71" height="153.07"/></clipPath><clipPath id="clippath-2"><rect class="cls-1" x="214.19" y="179.06" width="124.53" height="153.07"/></clipPath><clipPath id="clippath-3"><rect class="cls-1" x="206.16" y="144.48" width="76.32" height="169.67"/></clipPath></defs><g class="cls-11"><path class="cls-9" d="M273.69,158.71h-126.93c-11.62,0-21.14,9.77-21.14,21.71v75.92c0,11.94,9.52,21.68,21.14,21.68h10.58v32.56l42.31-32.56h21.16"/><path class="cls-9" d="M273.69,158.71h-126.93c-11.62,0-21.14,9.77-21.14,21.71v75.92c0,11.94,9.52,21.68,21.14,21.68h10.58v32.56l42.31-32.56h21.16"/></g><path class="cls-4" d="M221.88,278.01h2.12l41.25-97.6,8.44-21.71h-24.31l-41.25,92.2c-1.06,3.26-4.24,5.43-7.41,5.43-3.17,1.08-5.29,2.17-7.41,3.25l-35.96,29.28v21.7l42.31-32.56h22.22"/><g class="cls-5"><path class="cls-3" d="M265.25,180.42h82.48c11.64,0,21.17,9.77,21.17,21.68v75.92c0,11.94-9.52,21.7-21.17,21.7h-10.56v32.53l-42.31-32.53h-74.04c-2.11,0-4.23,0-5.29-1.08"/></g><g class="cls-7"><path class="cls-10" d="M287.46,278.01h-26.46c-7.39,0-12.68-7.57-9.51-15.17l34.91-82.42h-21.14l-41.25,97.6-8.47,20.62c2.12,0,4.23,1.08,5.29,1.08h74.04l42.31,32.53v-21.68l-37.02-28.22c-3.18-3.26-7.41-4.34-12.7-4.34"/></g><g class="cls-6"><path class="cls-2" d="M278.99,147.88l-68.75,162.69"/></g><path class="cls-8" d="M316.01,272.59c-3.18,0-5.29-2.15-5.29-5.41v-43.38c0-3.25-2.12-5.42-5.27-5.42h-21.17c-3.17,0-5.29,2.17-5.29,5.42v43.38c0,3.26-2.12,5.41-5.3,5.41s-5.26-2.15-5.26-5.41v-43.38c0-8.68,7.38-16.28,15.85-16.28h21.17c8.44,0,15.86,7.59,15.86,16.28v43.38c0,3.26-2.12,5.41-5.3,5.41"/><path class="cls-8" d="M220.82,196.67h-52.89c-3.18,0-5.3-2.17-5.3-5.41s2.12-5.42,5.3-5.42h52.89c3.18,0,5.27,2.17,5.27,5.42s-2.09,5.41-5.27,5.41ZM310.72,250.9h-31.73c-3.18,0-5.3-2.16-5.3-5.42s2.12-5.42,5.3-5.42h31.73c3.17,0,5.29,2.17,5.29,5.42s-2.12,5.42-5.29,5.42"/><path class="cls-8" d="M219.76,261.76c-1.05,0-2.11,0-2.11-1.08-25.4-13.03-42.31-40.13-43.37-68.32,0-3.26,2.12-5.43,5.29-5.43s5.3,2.17,5.3,5.43c1.06,24.93,15.85,47.7,38.08,59.64,2.09,1.08,3.15,4.34,2.09,7.59-2.09,1.09-4.21,2.17-5.27,2.17"/><path class="cls-8" d="M194.37,196.67c-3.18,0-5.29-2.17-5.29-5.41v-10.85c0-3.26,2.11-5.43,5.29-5.43s5.3,2.17,5.3,5.43v10.85c0,3.24-2.12,5.41-5.3,5.41ZM178.51,253.07c-2.11,0-3.17-1.08-4.23-2.17-2.12-2.16-1.06-5.42,1.06-7.59,16.91-11.91,27.49-30.36,28.55-52.04,0-3.25,2.12-5.42,5.3-5.42s5.29,3.25,5.29,5.42c-1.06,24.94-13.76,47.7-33.85,60.73,0,1.08-1.06,1.08-2.12,1.08"/></svg>