<svg xmlns="http://www.w3.org/2000/svg" xmlns:xlink="http://www.w3.org/1999/xlink" width="500" zoomAndPan="magnify" viewBox="0 0 375 374.999991" height="500" preserveAspectRatio="xMidYMid meet" version="1.2"><defs><clipPath id="a755a6ff51"><path d="M 126.714844 114 L 201 114 L 201 189 L 126.714844 189 Z M 126.714844 114 "/></clipPath><clipPath id="5bc9fe9150"><path d="M 171 124.132812 L 248.027344 124.132812 L 248.027344 198.769531 L 171 198.769531 Z M 171 124.132812 "/></clipPath><clipPath id="3a346e74e8"><path d="M 171 124.132812 L 233 124.132812 L 233 198.769531 L 171 198.769531 Z M 171 124.132812 "/></clipPath><clipPath id="384721dca6"><path d="M 167 107.269531 L 205 107.269531 L 205 190 L 167 190 Z M 167 107.269531 "/></clipPath></defs><g id="1b009ca7ea"><rect x="0" width="375" y="0" height="374.999991" style="fill:#ffffff;fill-opacity:1;stroke:none;"/><rect x="0" width="375" y="0" height="374.999991" style="fill:#1a4363;fill-opacity:1;stroke:none;"/><g style="fill:#ffffff;fill-opacity:1;"><g transform="translate(80.016368, 264.774184)"><path style="stroke:none" d="M 3.140625 -8 L 0.046875 -8 L 0.046875 -8.796875 L 7.171875 -8.796875 L 7.171875 -8 L 4.078125 -8 L 4.078125 0 L 3.140625 0 Z M 3.140625 -8 "/></g></g><g style="fill:#ffffff;fill-opacity:1;"><g transform="translate(89.417144, 264.774184)"><path style="stroke:none" d="M 7.453125 0 L 5.4375 -2.828125 C 5.207031 -2.804688 4.972656 -2.796875 4.734375 -2.796875 L 2.359375 -2.796875 L 2.359375 0 L 1.4375 0 L 1.4375 -8.796875 L 4.734375 -8.796875 C 5.859375 -8.796875 6.738281 -8.523438 7.375 -7.984375 C 8.007812 -7.453125 8.328125 -6.71875 8.328125 -5.78125 C 8.328125 -5.09375 8.148438 -4.507812 7.796875 -4.03125 C 7.453125 -3.5625 6.957031 -3.222656 6.3125 -3.015625 L 8.46875 0 Z M 4.703125 -3.578125 C 5.578125 -3.578125 6.242188 -3.769531 6.703125 -4.15625 C 7.160156 -4.539062 7.390625 -5.082031 7.390625 -5.78125 C 7.390625 -6.5 7.160156 -7.046875 6.703125 -7.421875 C 6.242188 -7.804688 5.578125 -8 4.703125 -8 L 2.359375 -8 L 2.359375 -3.578125 Z M 4.703125 -3.578125 "/></g></g><g style="fill:#ffffff;fill-opacity:1;"><g transform="translate(100.689856, 264.774184)"><path style="stroke:none" d="M 6.953125 -2.359375 L 2.046875 -2.359375 L 1 0 L 0.03125 0 L 4.046875 -8.796875 L 4.96875 -8.796875 L 9 0 L 8.015625 0 Z M 6.609375 -3.109375 L 4.5 -7.84375 L 2.390625 -3.109375 Z M 6.609375 -3.109375 "/></g></g><g style="fill:#ffffff;fill-opacity:1;"><g transform="translate(111.887193, 264.774184)"><path style="stroke:none" d="M 8.796875 -8.796875 L 8.796875 0 L 8.03125 0 L 2.359375 -7.140625 L 2.359375 0 L 1.4375 0 L 1.4375 -8.796875 L 2.203125 -8.796875 L 7.875 -1.65625 L 7.875 -8.796875 Z M 8.796875 -8.796875 "/></g></g><g style="fill:#ffffff;fill-opacity:1;"><g transform="translate(124.290601, 264.774184)"><path style="stroke:none" d="M 3.859375 0.078125 C 3.203125 0.078125 2.570312 -0.0234375 1.96875 -0.234375 C 1.375 -0.441406 0.914062 -0.71875 0.59375 -1.0625 L 0.953125 -1.78125 C 1.273438 -1.46875 1.695312 -1.210938 2.21875 -1.015625 C 2.75 -0.816406 3.296875 -0.71875 3.859375 -0.71875 C 4.648438 -0.71875 5.238281 -0.859375 5.625 -1.140625 C 6.019531 -1.429688 6.21875 -1.8125 6.21875 -2.28125 C 6.21875 -2.632812 6.109375 -2.914062 5.890625 -3.125 C 5.679688 -3.332031 5.421875 -3.488281 5.109375 -3.59375 C 4.804688 -3.707031 4.378906 -3.832031 3.828125 -3.96875 C 3.160156 -4.132812 2.628906 -4.296875 2.234375 -4.453125 C 1.835938 -4.609375 1.5 -4.84375 1.21875 -5.15625 C 0.945312 -5.476562 0.8125 -5.914062 0.8125 -6.46875 C 0.8125 -6.90625 0.925781 -7.304688 1.15625 -7.671875 C 1.394531 -8.035156 1.753906 -8.328125 2.234375 -8.546875 C 2.722656 -8.765625 3.328125 -8.875 4.046875 -8.875 C 4.554688 -8.875 5.050781 -8.804688 5.53125 -8.671875 C 6.007812 -8.535156 6.425781 -8.34375 6.78125 -8.09375 L 6.46875 -7.359375 C 6.09375 -7.597656 5.695312 -7.78125 5.28125 -7.90625 C 4.863281 -8.03125 4.453125 -8.09375 4.046875 -8.09375 C 3.273438 -8.09375 2.691406 -7.941406 2.296875 -7.640625 C 1.910156 -7.335938 1.71875 -6.953125 1.71875 -6.484375 C 1.71875 -6.140625 1.820312 -5.859375 2.03125 -5.640625 C 2.25 -5.429688 2.519531 -5.269531 2.84375 -5.15625 C 3.164062 -5.039062 3.601562 -4.914062 4.15625 -4.78125 C 4.800781 -4.625 5.320312 -4.46875 5.71875 -4.3125 C 6.113281 -4.15625 6.445312 -3.914062 6.71875 -3.59375 C 7 -3.28125 7.140625 -2.859375 7.140625 -2.328125 C 7.140625 -1.878906 7.019531 -1.472656 6.78125 -1.109375 C 6.539062 -0.742188 6.171875 -0.453125 5.671875 -0.234375 C 5.179688 -0.0234375 4.578125 0.078125 3.859375 0.078125 Z M 3.859375 0.078125 "/></g></g><g style="fill:#ffffff;fill-opacity:1;"><g transform="translate(134.206479, 264.774184)"><path style="stroke:none" d="M 1.4375 -8.796875 L 2.359375 -8.796875 L 2.359375 -0.8125 L 7.296875 -0.8125 L 7.296875 0 L 1.4375 0 Z M 1.4375 -8.796875 "/></g></g><g style="fill:#ffffff;fill-opacity:1;"><g transform="translate(143.795712, 264.774184)"><path style="stroke:none" d="M 6.953125 -2.359375 L 2.046875 -2.359375 L 1 0 L 0.03125 0 L 4.046875 -8.796875 L 4.96875 -8.796875 L 9 0 L 8.015625 0 Z M 6.609375 -3.109375 L 4.5 -7.84375 L 2.390625 -3.109375 Z M 6.609375 -3.109375 "/></g></g><g style="fill:#ffffff;fill-opacity:1;"><g transform="translate(154.993049, 264.774184)"><path style="stroke:none" d="M 3.140625 -8 L 0.046875 -8 L 0.046875 -8.796875 L 7.171875 -8.796875 L 7.171875 -8 L 4.078125 -8 L 4.078125 0 L 3.140625 0 Z M 3.140625 -8 "/></g></g><g style="fill:#ffffff;fill-opacity:1;"><g transform="translate(164.393824, 264.774184)"><path style="stroke:none" d="M 1.4375 -8.796875 L 2.359375 -8.796875 L 2.359375 0 L 1.4375 0 Z M 1.4375 -8.796875 "/></g></g><g style="fill:#ffffff;fill-opacity:1;"><g transform="translate(170.377382, 264.774184)"><path style="stroke:none" d="M 5.28125 0.078125 C 4.40625 0.078125 3.613281 -0.113281 2.90625 -0.5 C 2.195312 -0.894531 1.644531 -1.429688 1.25 -2.109375 C 0.851562 -2.785156 0.65625 -3.550781 0.65625 -4.40625 C 0.65625 -5.25 0.851562 -6.007812 1.25 -6.6875 C 1.644531 -7.363281 2.195312 -7.894531 2.90625 -8.28125 C 3.613281 -8.675781 4.40625 -8.875 5.28125 -8.875 C 6.15625 -8.875 6.941406 -8.679688 7.640625 -8.296875 C 8.335938 -7.910156 8.890625 -7.375 9.296875 -6.6875 C 9.703125 -6.007812 9.90625 -5.25 9.90625 -4.40625 C 9.90625 -3.550781 9.703125 -2.78125 9.296875 -2.09375 C 8.890625 -1.414062 8.335938 -0.882812 7.640625 -0.5 C 6.941406 -0.113281 6.15625 0.078125 5.28125 0.078125 Z M 5.28125 -0.75 C 5.976562 -0.75 6.609375 -0.90625 7.171875 -1.21875 C 7.734375 -1.539062 8.171875 -1.976562 8.484375 -2.53125 C 8.804688 -3.09375 8.96875 -3.71875 8.96875 -4.40625 C 8.96875 -5.09375 8.804688 -5.710938 8.484375 -6.265625 C 8.171875 -6.828125 7.734375 -7.265625 7.171875 -7.578125 C 6.609375 -7.890625 5.976562 -8.046875 5.28125 -8.046875 C 4.582031 -8.046875 3.953125 -7.890625 3.390625 -7.578125 C 2.828125 -7.265625 2.382812 -6.828125 2.0625 -6.265625 C 1.738281 -5.710938 1.578125 -5.09375 1.578125 -4.40625 C 1.578125 -3.71875 1.738281 -3.09375 2.0625 -2.53125 C 2.382812 -1.976562 2.828125 -1.539062 3.390625 -1.21875 C 3.953125 -0.90625 4.582031 -0.75 5.28125 -0.75 Z M 5.28125 -0.75 "/></g></g><g style="fill:#ffffff;fill-opacity:1;"><g transform="translate(183.107434, 264.774184)"><path style="stroke:none" d="M 8.796875 -8.796875 L 8.796875 0 L 8.03125 0 L 2.359375 -7.140625 L 2.359375 0 L 1.4375 0 L 1.4375 -8.796875 L 2.203125 -8.796875 L 7.875 -1.65625 L 7.875 -8.796875 Z M 8.796875 -8.796875 "/></g></g><g style="fill:#ffffff;fill-opacity:1;"><g transform="translate(195.510843, 264.774184)"><path style="stroke:none" d=""/></g></g><g style="fill:#ffffff;fill-opacity:1;"><g transform="translate(200.991863, 264.774184)"><path style="stroke:none" d="M 3.859375 0.078125 C 3.203125 0.078125 2.570312 -0.0234375 1.96875 -0.234375 C 1.375 -0.441406 0.914062 -0.71875 0.59375 -1.0625 L 0.953125 -1.78125 C 1.273438 -1.46875 1.695312 -1.210938 2.21875 -1.015625 C 2.75 -0.816406 3.296875 -0.71875 3.859375 -0.71875 C 4.648438 -0.71875 5.238281 -0.859375 5.625 -1.140625 C 6.019531 -1.429688 6.21875 -1.8125 6.21875 -2.28125 C 6.21875 -2.632812 6.109375 -2.914062 5.890625 -3.125 C 5.679688 -3.332031 5.421875 -3.488281 5.109375 -3.59375 C 4.804688 -3.707031 4.378906 -3.832031 3.828125 -3.96875 C 3.160156 -4.132812 2.628906 -4.296875 2.234375 -4.453125 C 1.835938 -4.609375 1.5 -4.84375 1.21875 -5.15625 C 0.945312 -5.476562 0.8125 -5.914062 0.8125 -6.46875 C 0.8125 -6.90625 0.925781 -7.304688 1.15625 -7.671875 C 1.394531 -8.035156 1.753906 -8.328125 2.234375 -8.546875 C 2.722656 -8.765625 3.328125 -8.875 4.046875 -8.875 C 4.554688 -8.875 5.050781 -8.804688 5.53125 -8.671875 C 6.007812 -8.535156 6.425781 -8.34375 6.78125 -8.09375 L 6.46875 -7.359375 C 6.09375 -7.597656 5.695312 -7.78125 5.28125 -7.90625 C 4.863281 -8.03125 4.453125 -8.09375 4.046875 -8.09375 C 3.273438 -8.09375 2.691406 -7.941406 2.296875 -7.640625 C 1.910156 -7.335938 1.71875 -6.953125 1.71875 -6.484375 C 1.71875 -6.140625 1.820312 -5.859375 2.03125 -5.640625 C 2.25 -5.429688 2.519531 -5.269531 2.84375 -5.15625 C 3.164062 -5.039062 3.601562 -4.914062 4.15625 -4.78125 C 4.800781 -4.625 5.320312 -4.46875 5.71875 -4.3125 C 6.113281 -4.15625 6.445312 -3.914062 6.71875 -3.59375 C 7 -3.28125 7.140625 -2.859375 7.140625 -2.328125 C 7.140625 -1.878906 7.019531 -1.472656 6.78125 -1.109375 C 6.539062 -0.742188 6.171875 -0.453125 5.671875 -0.234375 C 5.179688 -0.0234375 4.578125 0.078125 3.859375 0.078125 Z M 3.859375 0.078125 "/></g></g><g style="fill:#ffffff;fill-opacity:1;"><g transform="translate(210.907741, 264.774184)"><path style="stroke:none" d="M 1.4375 -8.796875 L 2.359375 -8.796875 L 2.359375 0 L 1.4375 0 Z M 1.4375 -8.796875 "/></g></g><g style="fill:#ffffff;fill-opacity:1;"><g transform="translate(216.891298, 264.774184)"><path style="stroke:none" d="M 10.578125 -8.796875 L 10.578125 0 L 9.6875 0 L 9.6875 -7.046875 L 6.21875 -1.125 L 5.78125 -1.125 L 2.328125 -7 L 2.328125 0 L 1.4375 0 L 1.4375 -8.796875 L 2.203125 -8.796875 L 6.03125 -2.28125 L 9.8125 -8.796875 Z M 10.578125 -8.796875 "/></g></g><g style="fill:#ffffff;fill-opacity:1;"><g transform="translate(231.078704, 264.774184)"><path style="stroke:none" d="M 4.734375 -8.796875 C 5.859375 -8.796875 6.738281 -8.523438 7.375 -7.984375 C 8.007812 -7.453125 8.328125 -6.71875 8.328125 -5.78125 C 8.328125 -4.84375 8.007812 -4.109375 7.375 -3.578125 C 6.738281 -3.046875 5.859375 -2.78125 4.734375 -2.78125 L 2.359375 -2.78125 L 2.359375 0 L 1.4375 0 L 1.4375 -8.796875 Z M 4.703125 -3.59375 C 5.578125 -3.59375 6.242188 -3.78125 6.703125 -4.15625 C 7.160156 -4.539062 7.390625 -5.082031 7.390625 -5.78125 C 7.390625 -6.5 7.160156 -7.046875 6.703125 -7.421875 C 6.242188 -7.804688 5.578125 -8 4.703125 -8 L 2.359375 -8 L 2.359375 -3.59375 Z M 4.703125 -3.59375 "/></g></g><g style="fill:#ffffff;fill-opacity:1;"><g transform="translate(242.288593, 264.774184)"><path style="stroke:none" d="M 1.4375 -8.796875 L 2.359375 -8.796875 L 2.359375 -0.8125 L 7.296875 -0.8125 L 7.296875 0 L 1.4375 0 Z M 1.4375 -8.796875 "/></g></g><g style="fill:#ffffff;fill-opacity:1;"><g transform="translate(251.877826, 264.774184)"><path style="stroke:none" d="M 1.4375 -8.796875 L 2.359375 -8.796875 L 2.359375 0 L 1.4375 0 Z M 1.4375 -8.796875 "/></g></g><g style="fill:#ffffff;fill-opacity:1;"><g transform="translate(257.861384, 264.774184)"><path style="stroke:none" d="M 2.359375 -8 L 2.359375 -4.546875 L 6.921875 -4.546875 L 6.921875 -3.734375 L 2.359375 -3.734375 L 2.359375 0 L 1.4375 0 L 1.4375 -8.796875 L 7.46875 -8.796875 L 7.46875 -8 Z M 2.359375 -8 "/></g></g><g style="fill:#ffffff;fill-opacity:1;"><g transform="translate(268.0034, 264.774184)"><path style="stroke:none" d="M 1.4375 -8.796875 L 2.359375 -8.796875 L 2.359375 0 L 1.4375 0 Z M 1.4375 -8.796875 "/></g></g><g style="fill:#ffffff;fill-opacity:1;"><g transform="translate(273.986958, 264.774184)"><path style="stroke:none" d="M 7.65625 -0.8125 L 7.65625 0 L 1.4375 0 L 1.4375 -8.796875 L 7.46875 -8.796875 L 7.46875 -8 L 2.359375 -8 L 2.359375 -4.875 L 6.921875 -4.875 L 6.921875 -4.078125 L 2.359375 -4.078125 L 2.359375 -0.8125 Z M 7.65625 -0.8125 "/></g></g><g style="fill:#ffffff;fill-opacity:1;"><g transform="translate(284.581253, 264.774184)"><path style="stroke:none" d="M 1.4375 -8.796875 L 5.015625 -8.796875 C 5.953125 -8.796875 6.773438 -8.609375 7.484375 -8.234375 C 8.191406 -7.867188 8.742188 -7.351562 9.140625 -6.6875 C 9.535156 -6.019531 9.734375 -5.257812 9.734375 -4.40625 C 9.734375 -3.550781 9.535156 -2.789062 9.140625 -2.125 C 8.742188 -1.457031 8.191406 -0.9375 7.484375 -0.5625 C 6.773438 -0.1875 5.953125 0 5.015625 0 L 1.4375 0 Z M 4.96875 -0.8125 C 5.738281 -0.8125 6.410156 -0.960938 6.984375 -1.265625 C 7.566406 -1.566406 8.015625 -1.988281 8.328125 -2.53125 C 8.648438 -3.070312 8.8125 -3.695312 8.8125 -4.40625 C 8.8125 -5.101562 8.648438 -5.722656 8.328125 -6.265625 C 8.015625 -6.804688 7.566406 -7.226562 6.984375 -7.53125 C 6.410156 -7.84375 5.738281 -8 4.96875 -8 L 2.359375 -8 L 2.359375 -0.8125 Z M 4.96875 -0.8125 "/></g></g><g style="fill:#ffffff;fill-opacity:1;"><g transform="translate(94.8458, 240.503866)"><path style="stroke:none" d="M 15.3125 0.34375 C 14.539062 0.34375 13.90625 0.164062 13.40625 -0.1875 C 12.90625 -0.550781 12.5 -1.085938 12.1875 -1.796875 L 0.984375 -26.9375 C 0.671875 -27.644531 0.582031 -28.269531 0.71875 -28.8125 C 0.863281 -29.363281 1.164062 -29.796875 1.625 -30.109375 C 2.082031 -30.421875 2.628906 -30.578125 3.265625 -30.578125 C 4.085938 -30.578125 4.707031 -30.398438 5.125 -30.046875 C 5.539062 -29.691406 5.890625 -29.15625 6.171875 -28.4375 L 16.34375 -4.890625 L 14.5 -4.890625 L 24.625 -28.484375 C 24.9375 -29.171875 25.304688 -29.691406 25.734375 -30.046875 C 26.160156 -30.398438 26.757812 -30.578125 27.53125 -30.578125 C 28.164062 -30.578125 28.6875 -30.421875 29.09375 -30.109375 C 29.507812 -29.796875 29.773438 -29.363281 29.890625 -28.8125 C 30.003906 -28.269531 29.90625 -27.644531 29.59375 -26.9375 L 18.40625 -1.796875 C 18.082031 -1.085938 17.6875 -0.550781 17.21875 -0.1875 C 16.75 0.164062 16.113281 0.34375 15.3125 0.34375 Z M 15.3125 0.34375 "/></g></g><g style="fill:#ffffff;fill-opacity:1;"><g transform="translate(130.307278, 240.503866)"><path style="stroke:none" d="M 6.21875 0 C 5.269531 0 4.546875 -0.25 4.046875 -0.75 C 3.546875 -1.25 3.296875 -1.972656 3.296875 -2.921875 L 3.296875 -27.328125 C 3.296875 -28.265625 3.546875 -28.984375 4.046875 -29.484375 C 4.546875 -29.984375 5.269531 -30.234375 6.21875 -30.234375 L 21.53125 -30.234375 C 22.25 -30.234375 22.800781 -30.046875 23.1875 -29.671875 C 23.570312 -29.304688 23.765625 -28.78125 23.765625 -28.09375 C 23.765625 -27.375 23.570312 -26.820312 23.1875 -26.4375 C 22.800781 -26.050781 22.25 -25.859375 21.53125 -25.859375 L 8.578125 -25.859375 L 8.578125 -17.546875 L 20.59375 -17.546875 C 21.332031 -17.546875 21.882812 -17.359375 22.25 -16.984375 C 22.625 -16.609375 22.8125 -16.066406 22.8125 -15.359375 C 22.8125 -14.640625 22.625 -14.09375 22.25 -13.71875 C 21.882812 -13.351562 21.332031 -13.171875 20.59375 -13.171875 L 8.578125 -13.171875 L 8.578125 -4.375 L 21.53125 -4.375 C 22.25 -4.375 22.800781 -4.1875 23.1875 -3.8125 C 23.570312 -3.445312 23.765625 -2.90625 23.765625 -2.1875 C 23.765625 -1.46875 23.570312 -0.921875 23.1875 -0.546875 C 22.800781 -0.179688 22.25 0 21.53125 0 Z M 6.21875 0 "/></g></g><g style="fill:#ffffff;fill-opacity:1;"><g transform="translate(160.794827, 240.503866)"><path style="stroke:none" d="M 6.046875 0.34375 C 5.160156 0.34375 4.476562 0.09375 4 -0.40625 C 3.53125 -0.90625 3.296875 -1.597656 3.296875 -2.484375 L 3.296875 -27.453125 C 3.296875 -28.367188 3.539062 -29.0625 4.03125 -29.53125 C 4.519531 -30 5.207031 -30.234375 6.09375 -30.234375 L 16.421875 -30.234375 C 19.742188 -30.234375 22.304688 -29.441406 24.109375 -27.859375 C 25.910156 -26.273438 26.8125 -24.050781 26.8125 -21.1875 C 26.8125 -19.332031 26.398438 -17.734375 25.578125 -16.390625 C 24.765625 -15.046875 23.585938 -14.015625 22.046875 -13.296875 C 20.503906 -12.578125 18.628906 -12.21875 16.421875 -12.21875 L 16.8125 -12.859375 L 18.234375 -12.859375 C 19.398438 -12.859375 20.421875 -12.570312 21.296875 -12 C 22.171875 -11.4375 22.9375 -10.539062 23.59375 -9.3125 L 26.8125 -3.34375 C 27.15625 -2.738281 27.3125 -2.148438 27.28125 -1.578125 C 27.25 -1.015625 27.03125 -0.550781 26.625 -0.1875 C 26.226562 0.164062 25.644531 0.34375 24.875 0.34375 C 24.101562 0.34375 23.472656 0.179688 22.984375 -0.140625 C 22.503906 -0.472656 22.078125 -0.984375 21.703125 -1.671875 L 17.375 -9.65625 C 16.851562 -10.625 16.242188 -11.269531 15.546875 -11.59375 C 14.847656 -11.925781 13.953125 -12.09375 12.859375 -12.09375 L 8.796875 -12.09375 L 8.796875 -2.484375 C 8.796875 -1.597656 8.566406 -0.90625 8.109375 -0.40625 C 7.648438 0.09375 6.960938 0.34375 6.046875 0.34375 Z M 8.796875 -16.171875 L 15.484375 -16.171875 C 17.453125 -16.171875 18.941406 -16.578125 19.953125 -17.390625 C 20.972656 -18.203125 21.484375 -19.425781 21.484375 -21.0625 C 21.484375 -22.664062 20.972656 -23.875 19.953125 -24.6875 C 18.941406 -25.5 17.453125 -25.90625 15.484375 -25.90625 L 8.796875 -25.90625 Z M 8.796875 -16.171875 "/></g></g><g style="fill:#ffffff;fill-opacity:1;"><g transform="translate(195.098577, 240.503866)"><path style="stroke:none" d="M 6.21875 0 C 5.269531 0 4.546875 -0.25 4.046875 -0.75 C 3.546875 -1.25 3.296875 -1.972656 3.296875 -2.921875 L 3.296875 -27.328125 C 3.296875 -28.265625 3.546875 -28.984375 4.046875 -29.484375 C 4.546875 -29.984375 5.269531 -30.234375 6.21875 -30.234375 L 16.515625 -30.234375 C 18.628906 -30.234375 20.425781 -29.914062 21.90625 -29.28125 C 23.394531 -28.65625 24.53125 -27.753906 25.3125 -26.578125 C 26.101562 -25.410156 26.5 -24.015625 26.5 -22.390625 C 26.5 -20.554688 25.96875 -19.007812 24.90625 -17.75 C 23.851562 -16.5 22.414062 -15.65625 20.59375 -15.21875 L 20.59375 -15.875 C 22.707031 -15.550781 24.347656 -14.742188 25.515625 -13.453125 C 26.691406 -12.171875 27.28125 -10.503906 27.28125 -8.453125 C 27.28125 -5.765625 26.367188 -3.679688 24.546875 -2.203125 C 22.734375 -0.734375 20.210938 0 16.984375 0 Z M 8.578125 -4.15625 L 16.296875 -4.15625 C 18.242188 -4.15625 19.671875 -4.535156 20.578125 -5.296875 C 21.492188 -6.054688 21.953125 -7.191406 21.953125 -8.703125 C 21.953125 -10.242188 21.492188 -11.382812 20.578125 -12.125 C 19.671875 -12.875 18.242188 -13.25 16.296875 -13.25 L 8.578125 -13.25 Z M 8.578125 -17.40625 L 15.5625 -17.40625 C 17.457031 -17.40625 18.867188 -17.769531 19.796875 -18.5 C 20.722656 -19.226562 21.1875 -20.3125 21.1875 -21.75 C 21.1875 -23.175781 20.722656 -24.253906 19.796875 -24.984375 C 18.867188 -25.710938 17.457031 -26.078125 15.5625 -26.078125 L 8.578125 -26.078125 Z M 8.578125 -17.40625 "/></g></g><g style="fill:#ffffff;fill-opacity:1;"><g transform="translate(229.488093, 240.503866)"><path style="stroke:none" d="M 6.046875 0.34375 C 5.160156 0.34375 4.476562 0.09375 4 -0.40625 C 3.53125 -0.90625 3.296875 -1.597656 3.296875 -2.484375 L 3.296875 -27.75 C 3.296875 -28.664062 3.53125 -29.363281 4 -29.84375 C 4.476562 -30.332031 5.160156 -30.578125 6.046875 -30.578125 C 6.929688 -30.578125 7.609375 -30.332031 8.078125 -29.84375 C 8.554688 -29.363281 8.796875 -28.664062 8.796875 -27.75 L 8.796875 -2.484375 C 8.796875 -1.597656 8.566406 -0.90625 8.109375 -0.40625 C 7.648438 0.09375 6.960938 0.34375 6.046875 0.34375 Z M 6.046875 0.34375 "/></g></g><g style="fill:#ffffff;fill-opacity:1;"><g transform="translate(246.46884, 240.503866)"><path style="stroke:none" d="M 16.859375 0.421875 C 13.941406 0.421875 11.390625 -0.21875 9.203125 -1.5 C 7.015625 -2.789062 5.316406 -4.597656 4.109375 -6.921875 C 2.910156 -9.253906 2.3125 -11.992188 2.3125 -15.140625 C 2.3125 -17.515625 2.65625 -19.648438 3.34375 -21.546875 C 4.03125 -23.453125 5.007812 -25.082031 6.28125 -26.4375 C 7.550781 -27.800781 9.078125 -28.847656 10.859375 -29.578125 C 12.648438 -30.304688 14.648438 -30.671875 16.859375 -30.671875 C 19.804688 -30.671875 22.363281 -30.03125 24.53125 -28.75 C 26.707031 -27.476562 28.394531 -25.6875 29.59375 -23.375 C 30.789062 -21.0625 31.390625 -18.332031 31.390625 -15.1875 C 31.390625 -12.8125 31.046875 -10.664062 30.359375 -8.75 C 29.679688 -6.832031 28.703125 -5.1875 27.421875 -3.8125 C 26.148438 -2.445312 24.617188 -1.398438 22.828125 -0.671875 C 21.046875 0.0546875 19.054688 0.421875 16.859375 0.421875 Z M 16.859375 -4.28125 C 18.710938 -4.28125 20.289062 -4.707031 21.59375 -5.5625 C 22.894531 -6.425781 23.894531 -7.671875 24.59375 -9.296875 C 25.300781 -10.929688 25.65625 -12.878906 25.65625 -15.140625 C 25.65625 -18.566406 24.890625 -21.222656 23.359375 -23.109375 C 21.828125 -25.003906 19.660156 -25.953125 16.859375 -25.953125 C 15.023438 -25.953125 13.453125 -25.53125 12.140625 -24.6875 C 10.828125 -23.84375 9.816406 -22.613281 9.109375 -21 C 8.410156 -19.382812 8.0625 -17.429688 8.0625 -15.140625 C 8.0625 -11.734375 8.832031 -9.070312 10.375 -7.15625 C 11.925781 -5.238281 14.085938 -4.28125 16.859375 -4.28125 Z M 16.859375 -4.28125 "/></g></g><g clip-rule="nonzero" clip-path="url(#a755a6ff51)"><path style=" stroke:none;fill-rule:nonzero;fill:#539ddb;fill-opacity:1;" d="M 200.625 114.207031 L 137.429688 114.207031 C 131.644531 114.207031 126.902344 118.972656 126.902344 124.792969 L 126.902344 161.808594 C 126.902344 167.628906 131.644531 172.378906 137.429688 172.378906 L 142.699219 172.378906 L 142.699219 188.253906 L 163.765625 172.378906 L 174.300781 172.378906 "/><path style=" stroke:none;fill-rule:nonzero;fill:#539ddb;fill-opacity:1;" d="M 200.625 114.207031 L 137.429688 114.207031 C 131.644531 114.207031 126.902344 118.972656 126.902344 124.792969 L 126.902344 161.808594 C 126.902344 167.628906 131.644531 172.378906 137.429688 172.378906 L 142.699219 172.378906 L 142.699219 188.253906 L 163.765625 172.378906 L 174.300781 172.378906 "/></g><path style=" stroke:none;fill-rule:nonzero;fill:#3e66ba;fill-opacity:1;" d="M 174.828125 172.378906 L 175.882812 172.378906 L 196.421875 124.792969 L 200.625 114.207031 L 188.519531 114.207031 L 167.980469 159.160156 C 167.453125 160.75 165.871094 161.808594 164.289062 161.808594 C 162.710938 162.335938 161.65625 162.867188 160.601562 163.394531 L 142.699219 177.671875 L 142.699219 188.253906 L 163.765625 172.378906 L 174.828125 172.378906 "/><g clip-rule="nonzero" clip-path="url(#5bc9fe9150)"><path style=" stroke:none;fill-rule:nonzero;fill:#eaeff9;fill-opacity:1;" d="M 196.421875 124.792969 L 237.488281 124.792969 C 243.285156 124.792969 248.027344 129.554688 248.027344 135.363281 L 248.027344 172.378906 C 248.027344 178.199219 243.285156 182.960938 237.488281 182.960938 L 232.230469 182.960938 L 232.230469 198.824219 L 211.164062 182.960938 L 174.300781 182.960938 C 173.25 182.960938 172.195312 182.960938 171.667969 182.433594 "/></g><g clip-rule="nonzero" clip-path="url(#3a346e74e8)"><path style=" stroke:none;fill-rule:nonzero;fill:#cce2ef;fill-opacity:1;" d="M 207.476562 172.378906 L 194.304688 172.378906 C 190.625 172.378906 187.992188 168.6875 189.570312 164.980469 L 206.949219 124.792969 L 196.421875 124.792969 L 175.882812 172.378906 L 171.667969 182.433594 C 172.722656 182.433594 173.773438 182.960938 174.300781 182.960938 L 211.164062 182.960938 L 232.230469 198.824219 L 232.230469 188.253906 L 213.800781 174.496094 C 212.21875 172.90625 210.109375 172.378906 207.476562 172.378906 "/></g><g clip-rule="nonzero" clip-path="url(#384721dca6)"><path style="fill:none;stroke-width:10;stroke-linecap:round;stroke-linejoin:round;stroke:#1a4363;stroke-opacity:1;stroke-miterlimit:10;" d="M 277.386652 325.195827 L 153.040831 38.241586 " transform="matrix(0.275284,0,0,-0.276435,126.901491,198.825222)"/></g><path style=" stroke:none;fill-rule:nonzero;fill:#1a4363;fill-opacity:1;" d="M 221.691406 169.734375 C 220.109375 169.734375 219.058594 168.6875 219.058594 167.097656 L 219.058594 145.945312 C 219.058594 144.359375 218.003906 143.300781 216.433594 143.300781 L 205.894531 143.300781 C 204.316406 143.300781 203.261719 144.359375 203.261719 145.945312 L 203.261719 167.097656 C 203.261719 168.6875 202.207031 169.734375 200.625 169.734375 C 199.054688 169.734375 198.003906 168.6875 198.003906 167.097656 L 198.003906 145.945312 C 198.003906 141.710938 201.679688 138.007812 205.894531 138.007812 L 216.433594 138.007812 C 220.636719 138.007812 224.328125 141.710938 224.328125 145.945312 L 224.328125 167.097656 C 224.328125 168.6875 223.273438 169.734375 221.691406 169.734375 "/><path style=" stroke:none;fill-rule:nonzero;fill:#1a4363;fill-opacity:1;" d="M 174.300781 132.71875 L 147.96875 132.71875 C 146.386719 132.71875 145.332031 131.660156 145.332031 130.082031 C 145.332031 128.496094 146.386719 127.4375 147.96875 127.4375 L 174.300781 127.4375 C 175.882812 127.4375 176.925781 128.496094 176.925781 130.082031 C 176.925781 131.660156 175.882812 132.71875 174.300781 132.71875 Z M 219.058594 159.160156 L 203.261719 159.160156 C 201.679688 159.160156 200.625 158.105469 200.625 156.515625 C 200.625 154.929688 201.679688 153.871094 203.261719 153.871094 L 219.058594 153.871094 C 220.636719 153.871094 221.691406 154.929688 221.691406 156.515625 C 221.691406 158.105469 220.636719 159.160156 219.058594 159.160156 "/><path style=" stroke:none;fill-rule:nonzero;fill:#1a4363;fill-opacity:1;" d="M 173.773438 164.453125 C 173.25 164.453125 172.722656 164.453125 172.722656 163.925781 C 160.074219 157.574219 151.65625 144.359375 151.128906 130.613281 C 151.128906 129.023438 152.183594 127.964844 153.761719 127.964844 C 155.34375 127.964844 156.398438 129.023438 156.398438 130.613281 C 156.925781 142.769531 164.289062 153.871094 175.355469 159.691406 C 176.398438 160.21875 176.925781 161.808594 176.398438 163.394531 C 175.355469 163.925781 174.300781 164.453125 173.773438 164.453125 "/><path style=" stroke:none;fill-rule:nonzero;fill:#1a4363;fill-opacity:1;" d="M 161.128906 132.71875 C 159.546875 132.71875 158.496094 131.660156 158.496094 130.082031 L 158.496094 124.792969 C 158.496094 123.203125 159.546875 122.144531 161.128906 122.144531 C 162.710938 122.144531 163.765625 123.203125 163.765625 124.792969 L 163.765625 130.082031 C 163.765625 131.660156 162.710938 132.71875 161.128906 132.71875 Z M 153.234375 160.21875 C 152.183594 160.21875 151.65625 159.691406 151.128906 159.160156 C 150.074219 158.105469 150.601562 156.515625 151.65625 155.457031 C 160.074219 149.648438 165.34375 140.652344 165.871094 130.082031 C 165.871094 128.496094 166.925781 127.4375 168.507812 127.4375 C 170.085938 127.4375 171.140625 129.023438 171.140625 130.082031 C 170.613281 142.242188 164.289062 153.339844 154.289062 159.691406 C 154.289062 160.21875 153.761719 160.21875 153.234375 160.21875 "/></g></svg>