<?xml version="1.0" encoding="UTF-8"?><svg id="Layer_1" xmlns="http://www.w3.org/2000/svg" xmlns:xlink="http://www.w3.org/1999/xlink" viewBox="0 0 500 500"><defs><style>.cls-1,.cls-2{fill:none;}.cls-3{fill:#eaeff9;}.cls-4{fill:#3e66ba;}.cls-5{clip-path:url(#clippath-1);}.cls-6{clip-path:url(#clippath-3);}.cls-7{clip-path:url(#clippath-2);}.cls-8{fill:#1a4363;}.cls-9{fill:#539ddb;}.cls-10{fill:#cce2ef;}.cls-2{stroke:#1a4363;stroke-linecap:round;stroke-linejoin:round;stroke-width:3.26px;}.cls-11{clip-path:url(#clippath);}</style><clipPath id="clippath"><rect class="cls-1" x="158.44" y="132" width="113.91" height="120.44"/></clipPath><clipPath id="clippath-1"><rect class="cls-1" x="226.16" y="148.55" width="116.74" height="120.56"/></clipPath><clipPath id="clippath-2"><rect class="cls-1" x="226.16" y="148.55" width="94.09" height="120.56"/></clipPath><clipPath id="clippath-3"><rect class="cls-1" x="219.32" y="121.31" width="58.16" height="134.78"/></clipPath></defs><polygon class="cls-8" points="91.95 362.26 87.25 362.26 87.25 360.95 98.1 360.95 98.1 362.26 93.37 362.26 93.37 375.27 91.95 375.27 91.95 362.26"/><path class="cls-8" d="M112.83,375.27l-3.05-4.59c-.36.04-.71.06-1.07.06h-3.61v4.53h-1.42v-14.31h5.03c1.71,0,3.05.44,4.01,1.31.98.88,1.47,2.07,1.47,3.59,0,1.13-.27,2.07-.8,2.85-.53.76-1.3,1.31-2.27,1.65l3.29,4.9h-1.58ZM108.66,369.45c1.34,0,2.35-.31,3.05-.94.71-.63,1.07-1.51,1.07-2.65s-.36-2.04-1.07-2.65c-.69-.63-1.71-.94-3.05-.94h-3.55v7.19h3.55Z"/><path class="cls-8" d="M129.26,371.45h-7.46l-1.6,3.82h-1.5l6.15-14.31h1.39l6.15,14.31h-1.5l-1.63-3.82ZM128.75,370.22l-3.21-7.7-3.23,7.7h6.44Z"/><polygon class="cls-8" points="149.13 360.95 149.13 375.27 147.96 375.27 139.35 363.66 139.35 375.27 137.93 375.27 137.93 360.95 139.08 360.95 147.74 372.56 147.74 360.95 149.13 360.95"/><path class="cls-8" d="M160.53,375.38c-1,0-1.95-.17-2.86-.51-.91-.34-1.62-.78-2.11-1.34l.53-1.17c.49.51,1.15.93,1.95,1.25.8.33,1.63.48,2.49.48,1.21,0,2.11-.23,2.7-.68.6-.47.91-1.09.91-1.85,0-.57-.17-1.03-.51-1.37-.32-.34-.72-.6-1.2-.77-.47-.19-1.12-.4-1.95-.63-1.02-.26-1.83-.52-2.43-.77-.59-.24-1.1-.63-1.52-1.14-.43-.53-.64-1.24-.64-2.14,0-.72.17-1.38.53-1.97.35-.58.9-1.05,1.63-1.4.75-.36,1.67-.54,2.78-.54.76,0,1.51.11,2.25.34.73.21,1.36.51,1.9.91l-.45,1.23c-.57-.4-1.18-.69-1.82-.88-.64-.21-1.27-.31-1.87-.31-1.18,0-2.07.25-2.67.74-.59.48-.88,1.1-.88,1.85,0,.57.16,1.04.48,1.4.33.34.75.61,1.23.8.49.17,1.16.37,2,.6.98.25,1.77.51,2.38.77.6.25,1.11.63,1.52,1.14.43.5.64,1.18.64,2.05,0,.73-.19,1.39-.56,2-.36.59-.91,1.05-1.66,1.4-.75.34-1.68.51-2.78.51Z"/><polygon class="cls-8" points="171.95 360.95 173.37 360.95 173.37 373.95 180.88 373.95 180.88 375.27 171.95 375.27 171.95 360.95"/><path class="cls-8" d="M194.96,371.45h-7.46l-1.6,3.82h-1.5l6.15-14.31h1.39l6.15,14.31h-1.5l-1.63-3.82ZM194.45,370.22l-3.21-7.7-3.23,7.7h6.44Z"/><polygon class="cls-8" points="206.22 362.26 201.52 362.26 201.52 360.95 212.37 360.95 212.37 362.26 207.64 362.26 207.64 375.27 206.22 375.27 206.22 362.26"/><rect class="cls-8" x="217.96" y="360.95" width="1.42" height="14.31"/><path class="cls-8" d="M232.93,375.38c-1.32,0-2.53-.31-3.61-.94-1.09-.63-1.94-1.49-2.54-2.59-.61-1.12-.91-2.37-.91-3.74s.3-2.6.91-3.71c.6-1.12,1.45-2,2.54-2.62,1.08-.63,2.29-.94,3.61-.94s2.53.31,3.58.94c1.07.63,1.9,1.5,2.51,2.62.62,1.1.94,2.34.94,3.71s-.31,2.62-.94,3.74c-.61,1.1-1.44,1.97-2.51,2.59-1.06.63-2.25.94-3.58.94ZM232.93,374.04c1.07,0,2.03-.26,2.89-.77.86-.51,1.52-1.21,2-2.11.48-.91.72-1.92.72-3.05s-.24-2.12-.72-3.02c-.48-.91-1.15-1.63-2-2.14-.86-.51-1.82-.77-2.89-.77s-2.02.26-2.89.77c-.86.51-1.54,1.23-2.03,2.14-.48.9-.72,1.9-.72,3.02s.24,2.14.72,3.05c.49.9,1.18,1.6,2.03,2.11.87.51,1.83.77,2.89.77Z"/><polygon class="cls-8" points="257.68 360.95 257.68 375.27 256.5 375.27 247.9 363.66 247.9 375.27 246.48 375.27 246.48 360.95 247.63 360.95 256.29 372.56 256.29 360.95 257.68 360.95"/><path class="cls-8" d="M277.42,375.38c-1,0-1.95-.17-2.86-.51-.91-.34-1.62-.78-2.11-1.34l.53-1.17c.49.51,1.15.93,1.95,1.25.8.33,1.63.48,2.49.48,1.21,0,2.11-.23,2.7-.68.6-.47.91-1.09.91-1.85,0-.57-.17-1.03-.51-1.37-.32-.34-.72-.6-1.2-.77-.47-.19-1.12-.4-1.95-.63-1.02-.26-1.83-.52-2.43-.77-.59-.24-1.1-.63-1.52-1.14-.43-.53-.64-1.24-.64-2.14,0-.72.17-1.38.53-1.97.35-.58.9-1.05,1.63-1.4.75-.36,1.67-.54,2.78-.54.76,0,1.51.11,2.25.34.73.21,1.36.51,1.9.91l-.45,1.23c-.57-.4-1.18-.69-1.82-.88-.64-.21-1.27-.31-1.87-.31-1.18,0-2.07.25-2.67.74-.59.48-.88,1.1-.88,1.85,0,.57.16,1.04.48,1.4.33.34.75.61,1.23.8.49.17,1.16.37,2,.6.98.25,1.77.51,2.38.77.6.25,1.11.63,1.52,1.14.43.5.64,1.18.64,2.05,0,.73-.19,1.39-.56,2-.36.59-.91,1.05-1.66,1.4-.75.34-1.68.51-2.78.51Z"/><rect class="cls-8" x="288.85" y="360.95" width="1.42" height="14.31"/><polygon class="cls-8" points="311.89 360.95 311.89 375.27 310.53 375.27 310.53 363.8 305.26 373.44 304.6 373.44 299.33 363.89 299.33 375.27 297.97 375.27 297.97 360.95 299.12 360.95 304.94 371.56 310.72 360.95 311.89 360.95"/><path class="cls-8" d="M324.62,360.95c1.71,0,3.05.44,4.01,1.31.98.88,1.47,2.07,1.47,3.59s-.49,2.72-1.47,3.59c-.96.88-2.3,1.31-4.01,1.31h-3.61v4.5h-1.42v-14.31h5.03ZM324.56,369.42c1.34,0,2.35-.3,3.05-.91.71-.63,1.07-1.51,1.07-2.65s-.36-2.04-1.07-2.65c-.69-.63-1.71-.94-3.05-.94h-3.55v7.16h3.55Z"/><polygon class="cls-8" points="336.68 360.95 338.09 360.95 338.09 373.95 345.6 373.95 345.6 375.27 336.68 375.27 336.68 360.95"/><rect class="cls-8" x="351.29" y="360.95" width="1.42" height="14.31"/><polygon class="cls-8" points="361.83 362.26 361.83 367.88 368.75 367.88 368.75 369.19 361.83 369.19 361.83 375.27 360.41 375.27 360.41 360.95 369.6 360.95 369.6 362.26 361.83 362.26"/><rect class="cls-8" x="375.87" y="360.95" width="1.42" height="14.31"/><polygon class="cls-8" points="394.47 373.95 394.47 375.27 384.98 375.27 384.98 360.95 394.18 360.95 394.18 362.26 386.4 362.26 386.4 367.37 393.32 367.37 393.32 368.65 386.4 368.65 386.4 373.95 394.47 373.95"/><path class="cls-8" d="M401.13,360.95h5.45c1.42,0,2.68.31,3.77.91,1.08.61,1.92,1.45,2.51,2.54.6,1.08.91,2.32.91,3.71s-.31,2.62-.91,3.71c-.59,1.08-1.43,1.93-2.51,2.54-1.09.61-2.35.91-3.77.91h-5.45v-14.31ZM406.5,373.95c1.18,0,2.2-.24,3.07-.74.89-.49,1.58-1.18,2.06-2.05.49-.89.75-1.91.75-3.05s-.25-2.15-.75-3.02c-.48-.89-1.17-1.58-2.06-2.08-.88-.49-1.9-.74-3.07-.74h-3.96v11.69h3.96Z"/><path class="cls-8" d="M133.3,336.87c-1.18,0-2.15-.3-2.91-.88-.77-.58-1.38-1.46-1.84-2.62l-17.05-40.8c-.48-1.15-.61-2.17-.4-3.05.23-.87.69-1.57,1.39-2.08s1.52-.77,2.49-.77c1.24,0,2.18.3,2.81.88.64.57,1.18,1.44,1.63,2.59l15.45,38.23h-2.81l15.42-38.29c.48-1.12,1.04-1.97,1.68-2.54.65-.58,1.58-.88,2.75-.88.94,0,1.72.26,2.35.77.64.51,1.05,1.21,1.23,2.08.17.88.03,1.9-.45,3.05l-17.03,40.8c-.48,1.16-1.09,2.04-1.82,2.62-.71.58-1.68.88-2.89.88Z"/><path class="cls-8" d="M173.41,336.3c-1.43,0-2.53-.4-3.29-1.2-.77-.81-1.15-2-1.15-3.54v-39.63c0-1.52.38-2.69,1.15-3.51.76-.81,1.86-1.23,3.29-1.23h23.31c1.08,0,1.92.31,2.51.91.59.61.88,1.47.88,2.57,0,1.18-.29,2.08-.88,2.71-.59.61-1.43.91-2.51.91h-19.73v13.51h18.28c1.14,0,1.98.31,2.54.91.57.61.86,1.5.86,2.65s-.29,2.05-.86,2.65c-.55.59-1.4.88-2.54.88h-18.28v14.28h19.73c1.08,0,1.92.31,2.51.91.59.59.88,1.47.88,2.62s-.29,2.07-.88,2.68c-.59.59-1.43.88-2.51.88h-23.31Z"/><path class="cls-8" d="M219.54,336.87c-1.34,0-2.37-.41-3.1-1.23-.71-.81-1.07-1.95-1.07-3.39v-40.52c0-1.48.36-2.6,1.1-3.36.75-.78,1.8-1.17,3.15-1.17h15.72c5.06,0,8.95,1.3,11.68,3.88,2.74,2.57,4.12,6.18,4.12,10.83,0,3.01-.63,5.6-1.87,7.78-1.23,2.19-3.02,3.86-5.37,5.02-2.35,1.16-5.21,1.74-8.55,1.74l.59-1.05h2.17c1.78,0,3.33.47,4.65,1.4,1.34.93,2.5,2.4,3.5,4.39l4.89,9.69c.53.97.78,1.92.72,2.85-.04.91-.37,1.67-.99,2.25-.61.58-1.5.88-2.67.88s-2.14-.27-2.89-.8c-.74-.55-1.38-1.38-1.92-2.48l-6.6-12.94c-.79-1.58-1.71-2.63-2.78-3.16-1.07-.55-2.43-.83-4.06-.83h-6.2v15.6c0,1.45-.36,2.58-1.07,3.39-.69.81-1.74,1.23-3.13,1.23ZM223.73,310.04h10.18c2.99,0,5.25-.66,6.79-1.97,1.55-1.33,2.33-3.31,2.33-5.96s-.78-4.56-2.33-5.87c-1.54-1.33-3.8-2-6.79-2h-10.18v15.8Z"/><path class="cls-8" d="M272,336.3c-1.43,0-2.53-.4-3.29-1.2-.77-.81-1.15-2-1.15-3.54v-39.63c0-1.52.38-2.69,1.15-3.51.76-.81,1.86-1.23,3.29-1.23h15.66c3.22,0,5.97.51,8.23,1.54,2.26,1.03,3.99,2.49,5.19,4.39,1.19,1.9,1.79,4.18,1.79,6.81,0,2.99-.82,5.5-2.43,7.53-1.6,2.04-3.8,3.41-6.58,4.11v-1.05c3.22.51,5.73,1.82,7.51,3.91,1.78,2.1,2.67,4.81,2.67,8.15,0,4.36-1.38,7.73-4.14,10.12-2.77,2.4-6.6,3.59-11.52,3.59h-16.38ZM275.59,329.54h11.76c2.95,0,5.13-.61,6.52-1.82,1.39-1.23,2.08-3.09,2.08-5.56s-.69-4.36-2.08-5.56c-1.39-1.21-3.57-1.82-6.52-1.82h-11.76v14.77ZM275.59,308.04h10.64c2.89,0,5.03-.58,6.44-1.77,1.4-1.2,2.11-2.95,2.11-5.27s-.71-4.06-2.11-5.25c-1.41-1.2-3.55-1.8-6.44-1.8h-10.64v14.08Z"/><path class="cls-8" d="M324.07,336.87c-1.34,0-2.37-.41-3.1-1.23-.71-.81-1.07-1.95-1.07-3.39v-41c0-1.48.35-2.61,1.07-3.39.73-.8,1.76-1.2,3.1-1.2s2.39.4,3.1,1.2c.73.78,1.1,1.91,1.1,3.39v41c0,1.45-.36,2.58-1.07,3.39-.69.81-1.74,1.23-3.13,1.23Z"/><path class="cls-8" d="M366.37,336.98c-4.44,0-8.33-1.03-11.65-3.11-3.33-2.09-5.92-5.03-7.75-8.81-1.82-3.78-2.73-8.23-2.73-13.34,0-3.86.51-7.33,1.55-10.41,1.05-3.08,2.54-5.72,4.46-7.93,1.94-2.2,4.28-3.89,7-5.08,2.73-1.2,5.76-1.8,9.11-1.8,4.47,0,8.35,1.04,11.65,3.11,3.31,2.05,5.89,4.96,7.72,8.72,1.83,3.76,2.75,8.2,2.75,13.32,0,3.84-.53,7.32-1.58,10.44-1.06,3.1-2.55,5.77-4.49,8.01-1.92,2.22-4.25,3.93-6.98,5.1-2.71,1.18-5.74,1.77-9.09,1.77ZM366.37,329.34c2.81,0,5.21-.69,7.19-2.08,1.99-1.4,3.51-3.43,4.57-6.07,1.07-2.64,1.6-5.8,1.6-9.47,0-5.57-1.17-9.88-3.5-12.94-2.32-3.06-5.61-4.59-9.86-4.59-2.8,0-5.2.68-7.19,2.05-2,1.37-3.53,3.36-4.6,5.99-1.07,2.62-1.6,5.79-1.6,9.49,0,5.53,1.18,9.86,3.53,12.97,2.35,3.1,5.64,4.65,9.86,4.65Z"/><g class="cls-11"><path class="cls-9" d="M270.83,132.52h-96.1c-8.8,0-16.01,7.69-16.01,17.09v59.8c0,9.4,7.21,17.07,16.01,17.07h8.01v25.65l32.03-25.65h16.02"/><path class="cls-9" d="M270.83,132.52h-96.1c-8.8,0-16.01,7.69-16.01,17.09v59.8c0,9.4,7.21,17.07,16.01,17.07h8.01v25.65l32.03-25.65h16.02"/></g><path class="cls-4" d="M231.6,226.48h1.6l31.23-76.87,6.39-17.09h-18.42l-31.23,72.61c-.8,2.57-3.21,4.28-5.61,4.28-2.4.86-4,1.71-5.61,2.56l-27.22,23.07v17.09l32.03-25.65h16.83"/><g class="cls-5"><path class="cls-3" d="M264.43,149.61h62.44c8.81,0,16.02,7.69,16.02,17.08v59.79c0,9.4-7.21,17.1-16.02,17.1h-7.99v25.62l-32.03-25.62h-56.06c-1.6,0-3.2,0-4-.86"/></g><g class="cls-7"><path class="cls-10" d="M281.24,226.48h-20.03c-5.59,0-9.6-5.96-7.2-11.95l26.43-64.92h-16.01l-31.23,76.87-6.41,16.24c1.6,0,3.21.86,4,.86h56.06l32.03,25.62v-17.07l-28.03-22.23c-2.4-2.57-5.61-3.42-9.61-3.42"/></g><g class="cls-6"><line class="cls-2" x1="274.83" y1="123.99" x2="222.78" y2="252.13"/></g><path class="cls-8" d="M302.86,222.21c-2.41,0-4.01-1.69-4.01-4.26v-34.17c0-2.57-1.6-4.28-3.99-4.28h-16.02c-2.41,0-4.01,1.71-4.01,4.28v34.17c0,2.57-1.6,4.26-4,4.26s-3.99-1.69-3.99-4.26v-34.17c0-6.84,5.59-12.82,12-12.82h16.02c6.39,0,12,5.99,12,12.82v34.17c0,2.57-1.6,4.26-4,4.26"/><path class="cls-8" d="M230.79,162.42h-40.04c-2.41,0-4.01-1.71-4.01-4.26s1.6-4.28,4.01-4.28h40.04c2.41,0,4,1.71,4,4.28s-1.59,4.26-4,4.26ZM298.85,205.13h-24.02c-2.4,0-4-1.71-4-4.27s1.6-4.28,4-4.28h24.02c2.41,0,4.01,1.71,4.01,4.28s-1.6,4.27-4.01,4.27"/><path class="cls-8" d="M230,213.68c-.8,0-1.6,0-1.6-.86-19.23-10.26-32.03-31.61-32.84-53.81,0-2.57,1.6-4.28,4.01-4.28s4,1.71,4,4.28c.8,19.64,12,37.57,28.83,46.97,1.59.86,2.39,3.42,1.59,5.98-1.59.86-3.19,1.71-3.99,1.71"/><path class="cls-8" d="M210.77,162.42c-2.41,0-4.01-1.71-4.01-4.26v-8.55c0-2.57,1.6-4.28,4.01-4.28s4,1.71,4,4.28v8.55c0,2.54-1.6,4.26-4,4.26ZM198.77,206.84c-1.6,0-2.41-.86-3.21-1.71-1.6-1.71-.8-4.27.8-5.98,12.8-9.39,20.81-23.91,21.62-40.99,0-2.57,1.6-4.28,4.01-4.28s4,2.57,4,4.28c-.8,19.64-10.42,37.57-25.62,47.83,0,.86-.8.86-1.6.86"/></svg>